<svg width="60" height="60" viewBox="0 0 60 60" fill="none" xmlns="http://www.w3.org/2000/svg">
<path d="M53.8511 48.8854H6.14785C4.9476 48.8839 3.79695 48.4064 2.94832 47.5576C2.09969 46.7088 1.62238 45.5581 1.62109 44.3578V41.1146C1.62109 40.8995 1.70652 40.6933 1.85857 40.5413C2.01063 40.3892 2.21686 40.3038 2.4319 40.3038H57.567C57.7821 40.3038 57.9883 40.3892 58.1404 40.5413C58.2924 40.6933 58.3779 40.8995 58.3779 41.1146V44.3578C58.3766 45.5581 57.8992 46.7088 57.0506 47.5576C56.202 48.4064 55.0513 48.8839 53.8511 48.8854ZM3.24272 41.9254V44.3578C3.24336 45.1282 3.54962 45.8668 4.09427 46.4116C4.63893 46.9564 5.37748 47.2629 6.14785 47.2638H53.8511C54.6215 47.2629 55.36 46.9564 55.9047 46.4116C56.4493 45.8668 56.7556 45.1282 56.7562 44.3578V41.9254H3.24272Z" fill="#fff"/>
<path d="M34.3154 45.1686H25.6835C25.1529 45.1682 24.6441 44.9573 24.2687 44.5821C23.8934 44.2069 23.6823 43.6982 23.6816 43.1676V41.1146C23.6816 40.8995 23.7671 40.6933 23.9191 40.5413C24.0712 40.3892 24.2774 40.3038 24.4925 40.3038H35.5065C35.7215 40.3038 35.9278 40.3892 36.0798 40.5413C36.2319 40.6933 36.3173 40.8995 36.3173 41.1146V43.1676C36.3167 43.6982 36.1055 44.2069 35.7302 44.5821C35.3549 44.9573 34.8461 45.1682 34.3154 45.1686ZM25.3033 41.9254V43.1676C25.3035 43.2683 25.3436 43.3648 25.4149 43.4359C25.4862 43.5071 25.5828 43.547 25.6835 43.547H34.3154C34.4161 43.547 34.5127 43.5071 34.584 43.4359C34.6553 43.3648 34.6955 43.2683 34.6957 43.1676V41.9254H25.3033Z" fill="#fff"/>
<path d="M53.078 41.9254H6.92019C6.70515 41.9254 6.49891 41.84 6.34686 41.688C6.1948 41.5359 6.10938 41.3297 6.10938 41.1146V14.4446C6.11045 13.5618 6.46163 12.7154 7.08589 12.0911C7.71016 11.4669 8.55653 11.1157 9.43937 11.1146H50.5588C51.4417 11.1157 52.2881 11.4669 52.9123 12.0911C53.5366 12.7154 53.8878 13.5618 53.8888 14.4446V41.1146C53.8888 41.3297 53.8034 41.5359 53.6514 41.688C53.4993 41.84 53.2931 41.9254 53.078 41.9254ZM7.731 40.3038H52.2672V14.4446C52.2666 13.9917 52.0864 13.5576 51.7661 13.2373C51.4459 12.9171 51.0117 12.7369 50.5588 12.7362H9.43937C8.98648 12.7369 8.55232 12.9171 8.23208 13.2373C7.91184 13.5576 7.73164 13.9917 7.731 14.4446V40.3038Z" fill="#fff"/>
</svg>
