<svg width="60" height="60" viewBox="0 0 60 60" fill="none" xmlns="http://www.w3.org/2000/svg">
<path d="M54.3238 46.2162H5.67515C4.59995 46.2162 3.56878 45.7891 2.8085 45.0288C2.04822 44.2685 1.62109 43.2374 1.62109 42.1622V6.48649C1.62109 5.41129 2.04822 4.38012 2.8085 3.61984C3.56878 2.85956 4.59995 2.43243 5.67515 2.43243H54.3238C55.399 2.43243 56.4302 2.85956 57.1905 3.61984C57.9507 4.38012 58.3779 5.41129 58.3779 6.48649V42.1622C58.3779 43.2374 57.9507 44.2685 57.1905 45.0288C56.4302 45.7891 55.399 46.2162 54.3238 46.2162ZM5.67515 4.05406C5.03003 4.05406 4.41133 4.31033 3.95516 4.7665C3.49899 5.22267 3.24272 5.84137 3.24272 6.48649V42.1622C3.24272 42.8073 3.49899 43.426 3.95516 43.8822C4.41133 44.3383 5.03003 44.5946 5.67515 44.5946H54.3238C54.9689 44.5946 55.5876 44.3383 56.0438 43.8822C56.5 43.426 56.7562 42.8073 56.7562 42.1622V6.48649C56.7562 5.84137 56.5 5.22267 56.0438 4.7665C55.5876 4.31033 54.9689 4.05406 54.3238 4.05406H5.67515Z" fill="#fff"/>
<path d="M30.0001 57.5676C24.146 57.5676 17.8379 56.3027 17.8379 53.5135C17.8379 52.3784 18.3244 50.3757 21.5676 49.6703C22.4375 49.4713 23.2281 49.0169 23.8377 48.3653C24.4474 47.7137 24.8484 46.8947 24.9892 46.0135L25.0946 45.3325L26.7163 45.5838L26.6028 46.2649C26.4095 47.4731 25.8566 48.5951 25.0163 49.4846C24.176 50.3741 23.0873 50.9898 21.8919 51.2514C19.4595 51.7865 19.4595 53.0838 19.4595 53.5135C19.4595 54.2433 23.0433 55.946 30.0001 55.946C36.9568 55.946 40.5406 54.2433 40.5406 53.5135C40.5406 53.0838 40.5406 51.7865 38.1082 51.2514C36.9188 50.984 35.8371 50.3658 35.003 49.4768C34.1689 48.5878 33.6209 47.4689 33.4298 46.2649L33.3163 45.5838L34.9379 45.3325L35.0433 46.0135C35.1841 46.8947 35.5851 47.7137 36.1948 48.3653C36.8045 49.0169 37.595 49.4713 38.4649 49.6703C41.7082 50.3757 42.1946 52.3784 42.1946 53.5135C42.1622 56.3027 35.8541 57.5676 30.0001 57.5676Z" fill="#fff"/>
<path d="M2.43164 38.1081H57.5668V39.7297H2.43164V38.1081Z" fill="#fff"/>
<path d="M26.7559 41.3514H33.2423V42.973H26.7559V41.3514Z" fill="#fff"/>
</svg>
