<svg width="27" height="44" viewBox="0 0 27 44" fill="none" xmlns="http://www.w3.org/2000/svg">
<path d="M22.2032 0.0859375H5.08398C3.87228 0.0873022 2.7106 0.569254 1.85379 1.42606C0.996989 2.28286 0.515037 3.44455 0.513672 4.65625V39.3438C0.515037 40.5555 0.996989 41.7171 1.85379 42.5739C2.7106 43.4307 3.87228 43.9127 5.08398 43.9141H22.2032C23.4149 43.9127 24.5766 43.4307 25.4334 42.5739C26.2902 41.7171 26.7722 40.5555 26.7735 39.3438V4.65625C26.7722 3.44455 26.2902 2.28286 25.4334 1.42606C24.5766 0.569254 23.4149 0.0873022 22.2032 0.0859375ZM18.7888 1.72656V2.78687C18.7885 3.00105 18.7032 3.20633 18.5517 3.35773C18.4002 3.50913 18.1949 3.59428 17.9807 3.59453H9.30883C9.0947 3.59428 8.88941 3.50911 8.738 3.3577C8.58659 3.20629 8.50142 3.001 8.50117 2.78687V1.72656H18.7888ZM25.1324 39.3438C25.1316 40.1205 24.8226 40.8652 24.2734 41.4144C23.7241 41.9636 22.9795 42.2726 22.2027 42.2734H5.08398C4.30725 42.2726 3.56258 41.9636 3.01334 41.4144C2.46411 40.8652 2.15517 40.1205 2.1543 39.3438V4.65625C2.15517 3.87952 2.46411 3.13484 3.01334 2.58561C3.56258 2.03637 4.30725 1.72743 5.08398 1.72656H6.85867V2.78687C6.85942 3.43597 7.1176 4.05827 7.57658 4.51725C8.03556 4.97623 8.65786 5.23441 9.30695 5.23516H17.9788C18.628 5.23441 19.2503 4.97624 19.7094 4.51728C20.1684 4.05831 20.4267 3.43601 20.4276 2.78687V1.72656H22.2032C22.9799 1.72756 23.7244 2.03655 24.2735 2.58577C24.8227 3.13499 25.1316 3.8796 25.1324 4.65625V39.3438Z" fill="#fff"/>
<path d="M18.6876 38.3674H8.59961C8.38205 38.3674 8.1734 38.4538 8.01956 38.6076C7.86572 38.7615 7.7793 38.9701 7.7793 39.1877C7.7793 39.4052 7.86572 39.6139 8.01956 39.7677C8.1734 39.9216 8.38205 40.008 8.59961 40.008H18.6876C18.9051 40.008 19.1138 39.9216 19.2676 39.7677C19.4215 39.6139 19.5079 39.4052 19.5079 39.1877C19.5079 38.9701 19.4215 38.7615 19.2676 38.6076C19.1138 38.4538 18.9051 38.3674 18.6876 38.3674Z" fill="#fff"/>
</svg>
