<svg width="38" height="48" viewBox="0 0 38 48" fill="none" xmlns="http://www.w3.org/2000/svg">
<path d="M20.262 3.85712H17.7441V5.53572H20.262V3.85712Z" fill="#fff"/>
<path d="M19.002 39.1072C17.3824 39.1072 16.0645 40.4251 16.0645 42.0447C16.0645 43.6643 17.3824 44.9822 19.002 44.9822C20.6215 44.9822 21.9395 43.6643 21.9395 42.0447C21.9395 40.4251 20.6215 39.1072 19.002 39.1072ZM19.002 43.3037C18.3077 43.3037 17.7431 42.739 17.7431 42.0448C17.7431 41.3506 18.3078 40.7859 19.002 40.7859C19.6961 40.7859 20.2609 41.3506 20.2609 42.0448C20.2609 42.739 19.6962 43.3037 19.002 43.3037Z" fill="#fff"/>
<path d="M32.8471 0.499939H5.16027C2.84404 0.499939 0.958984 2.37976 0.958984 4.69021V43.3098C0.958984 45.6203 2.84413 47.5 5.16036 47.5H32.8471C35.1633 47.5 37.0484 45.6202 37.0484 43.3098V4.69021C37.0483 2.37976 35.1633 0.499939 32.8471 0.499939ZM35.3698 43.3099C35.3698 44.695 34.238 45.8216 32.8471 45.8216H5.16027C3.76936 45.8216 2.6375 44.6951 2.6375 43.3099V4.69021C2.6375 3.30508 3.76936 2.17845 5.16027 2.17845H32.847C34.2379 2.17845 35.3697 3.30499 35.3697 4.69021L35.3698 43.3099Z" fill="#fff"/>
</svg>
